<?xml version="1.0" standalone="no"?>
<!DOCTYPE svg PUBLIC "-//W3C//DTD SVG 20010904//EN"
 "http://www.w3.org/TR/2001/REC-SVG-20010904/DTD/svg10.dtd">
<svg version="1.0" xmlns="http://www.w3.org/2000/svg"
 width="1192.000000pt" height="909.000000pt" viewBox="0 0 1192.000000 909.000000"
 preserveAspectRatio="xMidYMid meet">

<g transform="translate(0.000000,909.000000) scale(0.100000,-0.100000)"
fill="#000000" stroke="none">
<path d="M2910 9079 c-548 -47 -1069 -226 -1506 -518 -210 -140 -295 -211
-489 -405 -483 -484 -764 -1055 -851 -1731 -23 -176 -23 -524 0 -700 72 -560
278 -1053 626 -1495 105 -133 354 -382 490 -490 350 -278 785 -491 1214 -596
252 -61 476 -87 756 -87 376 -1 692 50 1053 170 l138 46 152 -51 c236 -79 449
-126 697 -153 144 -16 511 -16 650 0 663 76 1256 318 1748 714 l62 50 0 1094
0 1093 -325 0 -325 0 0 -165 0 -165 163 -2 162 -3 3 -832 2 -832 -58 -45
c-103 -79 -269 -182 -410 -254 -323 -166 -653 -266 -1018 -308 -171 -20 -563
-14 -719 10 -133 21 -298 56 -308 66 -5 4 13 20 40 35 80 47 263 174 350 244
l83 66 0 1093 0 1092 -325 0 -325 0 0 -165 0 -165 160 0 160 0 0 -838 0 -838
-72 -54 c-107 -80 -246 -165 -398 -244 l-134 -70 -105 55 c-690 356 -1190 958
-1389 1674 -67 238 -92 429 -92 700 0 423 85 787 270 1157 261 520 695 952
1216 1211 l105 52 135 -69 c165 -84 335 -194 475 -308 l105 -85 107 131 106
131 -37 34 c-62 57 -268 208 -357 262 -47 29 -85 55 -85 59 0 4 46 16 103 28
430 91 843 90 1262 -4 436 -97 876 -314 1206 -595 l56 -48 106 132 c58 72 103
135 100 140 -13 21 -220 178 -333 253 -832 548 -1864 681 -2812 363 l-148 -49
-132 44 c-420 142 -888 201 -1308 165z m432 -339 c81 -5 194 -16 250 -25 128
-19 308 -56 308 -64 -1 -3 -36 -27 -79 -53 -44 -26 -126 -82 -183 -124 -700
-520 -1128 -1259 -1218 -2104 -16 -149 -14 -480 5 -635 66 -552 289 -1083 638
-1517 205 -256 482 -504 750 -671 64 -41 83 -57 70 -61 -233 -69 -703 -106
-989 -76 -551 56 -1072 268 -1494 606 -117 94 -322 300 -413 414 -306 386
-498 834 -563 1320 -23 168 -23 482 0 650 61 457 232 873 508 1243 120 160
374 414 533 533 447 335 960 526 1512 563 170 12 201 12 365 1z"/>
<path d="M9548 7483 l-1248 -1248 0 -500 0 -500 1250 1250 1250 1250 -2 498
-3 497 -1247 -1247z"/>
<path d="M10638 7333 l-1248 -1248 0 -420 0 -420 1250 1250 1250 1250 -2 418
-3 417 -1247 -1247z"/>
<path d="M10638 5153 l-1248 -1248 0 -420 0 -420 1250 1250 1250 1250 -2 418
-3 417 -1247 -1247z"/>
<path d="M9548 5119 l-1248 -1241 0 -406 0 -407 1250 1250 1250 1250 -2 398
-3 397 -1247 -1241z"/>
<path d="M1560 1526 c-112 -31 -203 -106 -248 -204 -37 -81 -43 -204 -13 -283
58 -154 198 -249 365 -249 155 0 282 76 354 213 25 48 27 61 27 162 0 106 -1
112 -34 173 -86 158 -275 237 -451 188z m186 -186 c106 -52 138 -209 62 -305
-50 -64 -151 -83 -229 -42 -54 29 -99 107 -99 172 0 27 10 62 28 96 47 91 146
123 238 79z"/>
<path d="M2946 1529 c-63 -15 -155 -69 -196 -117 -166 -189 -109 -472 118
-584 62 -31 73 -33 172 -33 97 0 110 2 172 32 81 38 146 102 185 181 25 51 28
68 28 157 0 90 -3 106 -29 159 -80 163 -267 248 -450 205z m202 -206 c56 -46
77 -88 77 -158 0 -245 -343 -264 -363 -21 -11 132 72 222 196 213 40 -3 61
-11 90 -34z"/>
<path d="M11460 1526 c-95 -27 -163 -74 -214 -149 -128 -189 -61 -452 140
-546 138 -65 317 -50 457 39 l47 30 0 160 0 160 -170 0 -170 0 0 -70 0 -70 75
0 75 0 0 -45 c0 -57 -20 -69 -116 -70 -60 0 -76 4 -112 28 -98 64 -117 208
-39 302 60 73 153 86 253 35 32 -16 60 -30 61 -30 1 0 27 30 59 67 l56 67 -23
19 c-92 75 -258 106 -379 73z"/>
<path d="M45 1519 c-3 -8 -4 -172 -3 -364 l3 -350 225 0 c237 0 279 6 341 48
117 79 100 258 -29 314 l-34 14 33 22 c48 33 69 67 75 122 8 77 -24 131 -100
169 -59 30 -59 30 -282 34 -184 4 -225 2 -229 -9z m395 -174 c27 -25 26 -70
-2 -89 -16 -12 -47 -16 -110 -16 l-88 0 0 66 0 67 90 -5 c68 -4 96 -10 110
-23z m29 -269 c27 -24 27 -68 0 -92 -17 -15 -40 -19 -125 -22 l-104 -4 0 72 0
72 104 -4 c85 -2 108 -6 125 -22z"/>
<path d="M4055 1517 c-3 -6 -4 -170 -3 -362 l3 -350 98 -3 97 -3 0 93 1 93 38
44 38 43 93 -136 93 -136 119 0 c87 0 117 3 112 11 -4 7 -67 99 -140 206 -74
106 -134 195 -134 198 0 2 59 70 130 151 72 81 130 151 130 156 0 5 -51 7
-112 6 l-113 -3 -120 -142 c-66 -78 -123 -142 -127 -142 -5 -1 -8 64 -8 144
l0 145 -95 0 c-68 0 -97 -4 -100 -13z"/>
<path d="M5330 1165 l0 -366 98 3 97 3 5 96 c5 91 7 98 38 134 19 21 37 34 40
28 4 -6 45 -67 91 -137 l84 -126 118 0 c66 0 119 1 119 3 0 2 -63 95 -140 207
-121 176 -138 206 -127 219 8 9 69 79 137 156 l124 140 -113 3 c-93 2 -117 0
-131 -13 -10 -9 -67 -75 -126 -146 l-109 -130 -5 143 -5 143 -97 3 -98 3 0
-366z"/>
<path d="M6600 1165 l0 -365 293 2 292 3 3 83 3 82 -196 0 -195 0 0 60 0 60
170 0 170 0 0 80 0 80 -170 0 -170 0 0 55 0 55 190 0 190 0 0 85 0 85 -290 0
-290 0 0 -365z"/>
<path d="M7810 1166 l0 -367 98 3 97 3 3 103 3 102 78 0 c96 0 191 27 243 70
109 90 110 289 1 379 -61 51 -118 62 -330 68 l-193 6 0 -367z m378 160 c38
-37 37 -99 -1 -132 -24 -21 -38 -24 -103 -24 l-74 0 0 96 0 97 76 -5 c65 -4
79 -9 102 -32z"/>
<path d="M9025 1517 c-3 -6 -4 -170 -3 -362 l3 -350 98 -3 97 -3 0 366 0 365
-95 0 c-68 0 -97 -4 -100 -13z"/>
<path d="M9875 1517 c-3 -6 -4 -170 -3 -362 l3 -350 98 -3 97 -3 0 196 c0 117
4 194 9 191 5 -4 76 -92 158 -196 l148 -190 88 0 87 0 -2 363 -3 362 -97 3
-98 3 -2 -192 -3 -191 -148 191 -148 191 -90 0 c-63 0 -91 -4 -94 -13z"/>
<path d="M135 298 c-7 -18 -38 -86 -69 -152 -31 -65 -56 -122 -56 -127 0 -22
18 -5 38 36 l22 45 94 0 94 0 18 -45 c9 -25 23 -45 30 -45 10 0 8 13 -10 52
-97 216 -123 268 -134 268 -7 0 -19 -15 -27 -32z m100 -158 c6 -19 2 -20 -74
-20 -45 0 -81 2 -81 4 0 2 18 44 41 93 l40 88 34 -72 c18 -40 36 -81 40 -93z"/>
<path d="M620 170 c0 -100 4 -160 10 -160 6 0 10 52 10 135 0 74 4 135 8 135
5 0 56 -61 115 -135 59 -74 111 -135 117 -135 6 0 10 58 10 160 0 202 -18 218
-22 20 l-3 -140 -110 140 c-60 77 -116 140 -122 140 -10 0 -13 -39 -13 -160z"/>
<path d="M1220 170 l0 -160 75 0 c86 0 132 16 163 55 51 64 47 153 -8 210 -38
39 -87 55 -169 55 l-61 0 0 -160z m185 116 c62 -41 83 -131 45 -193 -27 -46
-68 -63 -145 -63 l-65 0 0 141 0 142 70 -5 c41 -3 80 -12 95 -22z"/>
<path d="M2240 307 c-105 -70 -97 -238 14 -288 50 -23 85 -24 133 -4 45 19 64
35 57 46 -3 5 -19 0 -36 -12 -16 -12 -49 -24 -71 -26 -139 -14 -204 194 -84
267 41 26 103 25 145 0 18 -11 38 -17 44 -14 6 4 -6 17 -28 30 -53 32 -128 33
-174 1z"/>
<path d="M2810 307 c-48 -31 -71 -76 -72 -136 0 -70 27 -119 82 -148 54 -29
94 -29 150 -1 50 26 90 89 90 143 0 45 -40 116 -79 142 -47 32 -125 32 -171 0z
m151 -12 c65 -34 91 -143 50 -211 -21 -35 -75 -64 -118 -64 -65 0 -133 73
-133 143 0 112 105 181 201 132z"/>
<path d="M3370 170 c0 -202 18 -218 22 -19 l3 142 110 -141 c61 -78 116 -141
123 -142 9 0 12 38 12 160 0 202 -18 218 -22 19 l-3 -142 -110 141 c-60 78
-116 141 -122 142 -10 0 -13 -38 -13 -160z"/>
<path d="M4005 318 c-30 -18 -44 -40 -45 -72 0 -42 24 -63 100 -86 81 -24 108
-49 94 -88 -19 -54 -106 -66 -165 -23 -18 13 -30 17 -34 10 -17 -26 85 -65
143 -54 71 13 107 90 63 134 -11 11 -51 29 -90 41 -91 27 -116 66 -69 110 27
25 94 27 127 4 16 -12 26 -13 34 -5 8 8 0 15 -26 26 -43 18 -104 19 -132 3z"/>
<path d="M4492 200 l3 -130 31 -31 c61 -61 169 -44 206 31 14 27 18 60 18 148
0 68 -4 112 -10 112 -6 0 -10 -43 -10 -107 0 -120 -15 -167 -60 -191 -37 -19
-98 -8 -129 22 -25 25 -26 32 -29 151 -2 74 -8 125 -14 125 -6 0 -8 -48 -6
-130z"/>
<path d="M5070 171 l0 -161 111 0 c71 0 108 4 104 10 -3 5 -46 10 -95 10 l-89
0 -3 147 c-2 106 -6 147 -15 151 -10 3 -13 -33 -13 -157z"/>
<path d="M5570 320 c0 -5 25 -10 55 -10 l55 0 0 -150 c0 -93 4 -150 10 -150 6
0 10 57 10 150 l0 150 55 0 c30 0 55 5 55 10 0 6 -47 10 -120 10 -73 0 -120
-4 -120 -10z"/>
<path d="M6120 170 c0 -100 4 -160 10 -160 6 0 10 60 10 160 0 100 -4 160 -10
160 -6 0 -10 -60 -10 -160z"/>
<path d="M6480 171 c0 -201 18 -220 22 -24 l3 138 108 -138 c60 -75 113 -137
118 -137 5 0 9 69 9 160 0 100 -4 160 -10 160 -6 0 -10 -54 -10 -142 l0 -141
-110 139 c-60 76 -114 140 -120 142 -6 2 -10 -53 -10 -157z"/>
<path d="M7129 306 c-45 -31 -69 -80 -69 -143 0 -67 26 -113 80 -140 54 -28
101 -29 158 -3 l42 19 0 66 0 65 -65 0 c-37 0 -65 -4 -65 -10 0 -5 25 -10 55
-10 l55 0 0 -49 c0 -49 0 -49 -45 -66 -77 -30 -143 -5 -181 67 -31 60 -6 155
50 189 37 23 114 25 142 4 21 -16 44 -19 44 -6 0 17 -68 41 -117 41 -35 0 -58
-7 -84 -24z"/>
<path d="M8054 306 c-21 -18 -28 -32 -28 -61 0 -47 24 -68 96 -85 73 -17 98
-34 98 -68 0 -33 -8 -45 -37 -61 -33 -17 -65 -13 -116 13 -55 27 -74 16 -25
-14 72 -44 165 -34 193 20 30 58 0 103 -85 125 -73 19 -100 39 -100 75 0 53
80 79 140 45 30 -17 40 -18 40 -5 0 17 -58 40 -104 40 -33 0 -52 -6 -72 -24z"/>
<path d="M8560 170 l0 -160 115 0 c70 0 115 4 115 10 0 6 -42 10 -105 10
l-105 0 0 65 0 65 90 0 c53 0 90 4 90 10 0 6 -37 10 -90 10 l-90 0 0 65 0 65
106 0 c67 0 103 4 99 10 -4 6 -53 10 -116 10 l-109 0 0 -160z"/>
<path d="M9100 171 c0 -101 4 -161 10 -161 6 0 10 28 10 65 l0 65 53 0 53 0
49 -65 c27 -36 55 -65 63 -65 16 0 11 8 -40 73 -21 27 -38 52 -38 55 0 4 15
14 33 22 64 30 71 102 13 144 -22 17 -46 22 -117 24 l-89 4 0 -161z m199 115
c13 -12 21 -31 21 -51 0 -52 -29 -69 -121 -74 l-79 -3 0 77 0 77 79 -3 c60 -3
84 -9 100 -23z"/>
<path d="M9640 320 c0 -14 128 -302 139 -313 11 -11 29 23 101 191 29 67 50
126 46 129 -9 10 -11 7 -74 -140 -32 -76 -62 -139 -66 -140 -4 -1 -35 62 -68
141 -52 123 -78 167 -78 132z"/>
<path d="M10240 170 c0 -100 4 -160 10 -160 6 0 10 60 10 160 0 100 -4 160
-10 160 -6 0 -10 -60 -10 -160z"/>
<path d="M10660 308 c-48 -33 -72 -70 -77 -121 -7 -60 11 -110 52 -146 58 -51
148 -53 202 -6 40 34 23 41 -23 10 -71 -49 -159 -21 -196 62 -28 63 -17 116
32 165 33 34 43 38 86 38 31 0 61 -7 82 -20 37 -23 42 -24 42 -10 0 6 -15 19
-32 30 -47 28 -125 27 -168 -2z"/>
<path d="M11167 323 c-4 -3 -7 -75 -7 -160 l0 -153 121 0 c77 0 118 4 114 10
-3 6 -50 10 -106 10 l-99 0 0 65 0 65 90 0 c53 0 90 4 90 10 0 6 -37 10 -90
10 l-90 0 0 65 0 65 100 0 c60 0 100 4 100 10 0 11 -212 14 -223 3z"/>
<path d="M11738 314 c-29 -15 -42 -46 -36 -85 4 -30 57 -65 110 -74 42 -7 88
-43 88 -68 0 -29 -35 -58 -75 -63 -31 -4 -51 0 -87 20 -52 28 -70 13 -20 -16
90 -53 202 -18 202 64 0 39 -30 64 -97 84 -77 22 -103 39 -103 69 0 57 78 84
144 50 17 -9 33 -12 38 -7 14 14 -54 42 -99 42 -21 -1 -50 -7 -65 -16z"/>
</g>
</svg>
